<svg width="20" height="22" viewBox="0 0 20 22" fill="none" xmlns="http://www.w3.org/2000/svg">
<path d="M19 8.99997H1M14 0.999969V4.99997M6 0.999969V4.99997M5.8 21H14.2C15.8802 21 16.7202 21 17.362 20.673C17.9265 20.3854 18.3854 19.9264 18.673 19.3619C19 18.7202 19 17.8801 19 16.2V7.79997C19 6.11981 19 5.27973 18.673 4.638C18.3854 4.07351 17.9265 3.61457 17.362 3.32695C16.7202 2.99997 15.8802 2.99997 14.2 2.99997H5.8C4.11984 2.99997 3.27976 2.99997 2.63803 3.32695C2.07354 3.61457 1.6146 4.07351 1.32698 4.638C1 5.27973 1 6.11981 1 7.79997V16.2C1 17.8801 1 18.7202 1.32698 19.3619C1.6146 19.9264 2.07354 20.3854 2.63803 20.673C3.27976 21 4.11984 21 5.8 21Z" stroke="#232323" stroke-width="2" stroke-linecap="round" stroke-linejoin="round"/>
</svg>
